<svg width="32" height="23" viewBox="0 0 32 23" fill="none" xmlns="http://www.w3.org/2000/svg">
<path d="M17.0362 1.09309L26.0154 7.89688V9.03004V21.3733C26.0154 21.819 25.6206 22.25 25.0478 22.25H21.1754C20.7318 22.25 20.4416 21.9182 20.4416 21.5948V17.3152C20.4416 15.7956 19.2619 14.4954 17.7277 14.4954H14.2739C12.7397 14.4954 11.56 15.7956 11.56 17.3152V21.5948C11.56 21.9182 11.2699 22.25 10.8263 22.25H6.95386C6.38101 22.25 5.9862 21.819 5.9862 21.3733V9.03004V7.90155L14.9716 1.09309C14.9718 1.09289 14.9721 1.0927 14.9724 1.0925C15.5791 0.635778 16.429 0.635834 17.0357 1.09267C17.0358 1.09281 17.036 1.09295 17.0362 1.09309Z" fill="#FF7A30" stroke="#FF7A30" stroke-width="1.5"/>
</svg>
