<svg width="45" height="35" viewBox="0 0 45 35" fill="none" xmlns="http://www.w3.org/2000/svg">
<path d="M11.6403 29.9658L1.78108 14.256C0.300292 11.8965 1.01263 8.78334 3.37212 7.30256L10.4577 2.85577C12.8172 1.37499 15.9303 2.08732 17.4111 4.44682L27.2704 20.1566C27.9808 21.2887 28.2129 22.6565 27.9157 23.9596L26.5993 29.7305C25.9792 32.4489 23.271 34.1485 20.5534 33.5248L14.7843 32.2007C13.4816 31.9017 12.3508 31.0979 11.6403 29.9658Z" fill="black" stroke="black" stroke-width="2"/>
<path d="M18.9378 20.7134L26.8016 3.91572C27.9827 1.39283 30.9853 0.305076 33.5082 1.48616L41.0845 5.03296C43.6073 6.21404 44.6951 9.2167 43.514 11.7396L35.6502 28.5373C35.0835 29.7478 34.0595 30.6839 32.8032 31.1399L27.2393 33.1597C24.6184 34.1111 21.7227 32.7555 20.7748 30.1333L18.7624 24.5668C18.308 23.3098 18.3711 21.9239 18.9378 20.7134Z" fill="#FF7A30" stroke="white" stroke-width="2"/>
</svg>
