<svg width="81" height="62" viewBox="0 0 81 62" fill="none" xmlns="http://www.w3.org/2000/svg">
<path d="M20.7764 54.2314L2.02692 23.2554C0.0109682 19.9249 1.07666 15.5907 4.40721 13.5747L21.3767 3.30322C24.7073 1.28727 29.0415 2.35296 31.0575 5.68352L49.8069 36.6594C50.7742 38.2574 51.0676 40.174 50.6228 41.9882L47.2807 55.62C46.3527 59.4048 42.53 61.7186 38.7466 60.7856L25.1192 57.4253C23.3056 56.9781 21.7436 55.8294 20.7764 54.2314Z" fill="black" stroke="black" stroke-width="2"/>
<path d="M32.8013 37.5073L48.681 4.96677C50.3884 1.46798 54.6088 0.0157694 58.1076 1.72316L75.9343 10.4225C79.4331 12.1299 80.8853 16.3503 79.1779 19.8491L63.2982 52.3897C62.479 54.0684 61.027 55.3533 59.2611 55.9622L45.9923 60.5378C42.3084 61.8081 38.2926 59.8484 37.0272 56.1628L32.4693 42.8879C31.8627 41.1212 31.9821 39.186 32.8013 37.5073Z" fill="#FF7A30" stroke="white" stroke-width="2"/>
</svg>
