<svg width="21" height="16" viewBox="0 0 21 16" fill="none" xmlns="http://www.w3.org/2000/svg">
<path d="M6.21272 7.7945H19.968" stroke="#24130A" stroke-width="2" stroke-miterlimit="10" stroke-linecap="round"/>
<path d="M6.21272 14.2133H19.968" stroke="#24130A" stroke-width="2" stroke-miterlimit="10" stroke-linecap="round"/>
<path d="M6.21272 1.37568H19.968" stroke="#24130A" stroke-width="2" stroke-miterlimit="10" stroke-linecap="round"/>
<path d="M1.37553 0C0.614403 0 0 0.614403 0 1.37553C0 2.13665 0.614403 2.75106 1.37553 2.75106C2.13665 2.75106 2.75106 2.13665 2.75106 1.37553C2.75106 0.614403 2.13665 0 1.37553 0Z" fill="#24130A"/>
<path d="M1.37553 6.39161C0.614403 6.39161 0 7.00601 0 7.76714C0 8.52827 0.614403 9.14267 1.37553 9.14267C2.13665 9.14267 2.75106 8.52827 2.75106 7.76714C2.75106 7.00601 2.13665 6.39161 1.37553 6.39161Z" fill="#24130A"/>
<path d="M1.37553 12.8381C0.614403 12.8381 0 13.4526 0 14.2137C0 14.9748 0.614403 15.5892 1.37553 15.5892C2.13665 15.5892 2.75106 14.9748 2.75106 14.2137C2.75106 13.4526 2.13665 12.8381 1.37553 12.8381Z" fill="#24130A"/>
</svg>
