<svg width="163" height="125" viewBox="0 0 163 125" fill="none" xmlns="http://www.w3.org/2000/svg">
<path d="M41.8145 110.219L2.897 45.9235C-0.84189 39.7465 1.13459 31.7081 7.31159 27.9692L44.642 5.37348C50.819 1.6346 58.8574 3.61108 62.5963 9.78807L101.514 74.0836C103.308 77.0473 103.852 80.6019 103.027 83.9666L95.6748 113.955C93.9538 120.974 86.8641 125.265 79.847 123.535L49.8689 116.143C46.5053 115.313 43.6084 113.183 41.8145 110.219Z" fill="black" stroke="black" stroke-width="2"/>
<path d="M64.9913 75.8921L97.9521 8.349C101.119 1.86 108.946 -0.833343 115.435 2.33327L154.651 21.4705C161.14 24.6371 163.833 32.4645 160.667 38.9535L127.706 106.497C126.187 109.61 123.494 111.993 120.219 113.123L91.0293 123.188C84.1969 125.544 76.7491 121.91 74.4021 115.074L64.3755 85.8713C63.2505 82.5947 63.472 79.0055 64.9913 75.8921Z" fill="#FF7A30" stroke="white" stroke-width="2"/>
</svg>
