<svg width="25" height="25" viewBox="0 0 25 25" fill="none" xmlns="http://www.w3.org/2000/svg">
<g clip-path="url(#clip0_102_4720)">
<path d="M5.54053 15.1084L4.67041 18.3569L1.48975 18.4243C0.539062 16.6611 0 14.644 0 12.5005C0 10.3569 0.503906 8.47314 1.39746 6.75195H1.39795L4.22949 7.271L5.46973 10.0854C5.20996 10.8423 5.06885 11.6548 5.06885 12.5005C5.06885 13.418 5.23535 14.2974 5.54004 15.1084H5.54053Z" fill="#FBBB00"/>
<path d="M24.7817 10.165C24.9253 10.9214 25 11.7021 25 12.5C25 13.395 24.9058 14.2681 24.7266 15.1099C24.1182 17.9751 22.5283 20.4771 20.3257 22.248H20.3252L16.7588 22.0654L16.2539 18.9141C17.7153 18.0571 18.8574 16.7158 19.4595 15.1099H12.7754V10.165H24.7822H24.7817Z" fill="#518EF8"/>
<path d="M20.3247 22.2466H20.3252C18.1831 23.9692 15.4619 24.9995 12.4995 24.9995C7.73926 24.9995 3.60059 22.3389 1.48926 18.4233L5.54004 15.1074C6.5957 17.9248 9.31348 19.9302 12.4995 19.9302C13.8691 19.9302 15.1519 19.5601 16.2529 18.9136L20.3242 22.2466H20.3247Z" fill="#28B446"/>
<path d="M20.4785 2.87793L16.4292 6.19336C15.2895 5.48096 13.9429 5.06982 12.5 5.06982C9.2417 5.06982 6.47314 7.16748 5.4707 10.0854L1.39844 6.75146H1.39795C3.47803 2.74023 7.66894 0 12.5 0C15.5327 0 18.314 1.08057 20.4785 2.87793Z" fill="#F14336"/>
</g>
<defs>
<clipPath id="clip0_102_4720">
<rect width="25" height="25" fill="white"/>
</clipPath>
</defs>
</svg>
