<svg width="25" height="27" viewBox="0 0 25 27" fill="none" xmlns="http://www.w3.org/2000/svg">
<path d="M18.7296 7.96784L18.7298 7.98708L18.7308 8.0063C18.9349 12.1263 20.383 16.0876 22.8841 19.3679C22.9805 19.4972 23.0393 19.6507 23.0538 19.8115C23.0684 19.9731 23.0377 20.1357 22.9649 20.281C22.8922 20.4262 22.7805 20.5483 22.6423 20.6335C22.5041 20.7187 22.3448 20.7636 22.1824 20.7633H22.1806L1.84928 20.7633L1.84421 20.7634C1.69253 20.7641 1.54351 20.7238 1.41286 20.6467C1.28219 20.5695 1.17488 20.4584 1.10233 20.3252C1.02979 20.192 0.994652 20.0417 1.00068 19.89C1.00662 19.7405 1.05228 19.5956 1.13283 19.47C2.6289 17.2585 3.49499 14.373 3.98979 12.1112C4.24035 10.9659 4.4013 9.95342 4.49978 9.22624C4.54908 8.86227 4.58286 8.56874 4.60446 8.36455C4.61526 8.26243 4.62302 8.18258 4.62815 8.12736L4.63393 8.06327L4.63545 8.04561L4.63588 8.04047L4.63601 8.03884L4.63606 8.03826C4.63608 8.03803 4.63609 8.03783 3.63936 7.95681L4.63609 8.03783L4.63893 8.0029L4.63932 7.96784C4.65978 6.11284 5.4111 4.34075 6.73011 3.03621C8.04911 1.73168 9.82929 1.00002 11.6844 1.00002C13.5395 1.00002 15.3198 1.73169 16.6388 3.03621C17.9578 4.34075 18.7091 6.11284 18.7296 7.96784Z" stroke="#A4A4A4" stroke-width="2"/>
<path d="M14.9821 23.038C15.1222 23.0386 15.2603 23.072 15.3852 23.1358C15.51 23.1995 15.6181 23.2918 15.7007 23.405C15.7834 23.5182 15.8383 23.6493 15.8609 23.7876C15.8836 23.926 15.8734 24.0677 15.8312 24.2014C15.5763 25.0347 15.0533 25.7605 14.3435 26.2661C13.6337 26.7717 12.7769 27.0287 11.906 26.9972C11.0351 26.9657 10.199 26.6475 9.52754 26.092C8.85611 25.5365 8.38692 24.7748 8.19289 23.9252C8.16913 23.8187 8.16966 23.7082 8.19433 23.6019C8.219 23.4956 8.26714 23.3961 8.33538 23.311C8.40363 23.2258 8.49018 23.157 8.58857 23.1098C8.68695 23.0625 8.79465 23.038 8.90379 23.038H14.9821Z" fill="#A4A4A4"/>
</svg>
